<?xml version="1.0" encoding="utf-8"?>
<!-- Generator: Adobe Illustrator 27.5.0, SVG Export Plug-In . SVG Version: 6.00 Build 0)  -->
<svg version="1.1" id="Layer_2" xmlns="http://www.w3.org/2000/svg" xmlns:xlink="http://www.w3.org/1999/xlink" x="0px" y="0px"
	 viewBox="0 0 183.549 261.795" style="enable-background:new 0 0 183.549 261.795;" xml:space="preserve">
<g>
	<g>
		<g>
			<g>
				<g>
					<path style="fill:#FFBB22;" d="M74.528,135.292c0,0-8.776,2.264-18.599,10.113c-5.226-5.049-6.339,9.581,5.46,16.49
						c3.077,1.443,4.333-0.961,3.413-2.601c0,0,9.719-4.917,15.46-15.632C82.873,138.787,80.279,133.606,74.528,135.292z"/>
					<path style="fill:#E88400;" d="M63.117,162.814c-0.524,0-1.163-0.131-1.929-0.49c-7.542-4.414-9.787-11.591-9.465-15.343
						c0.136-1.58,0.712-2.639,1.623-2.979c0.549-0.205,1.432-0.221,2.603,0.779c9.527-7.513,18.124-9.861,18.451-9.948
						c2.579-0.754,4.826-0.237,6.169,1.418c1.538,1.894,1.582,4.89,0.111,7.633c-5.083,9.49-13.36,14.543-15.265,15.615
						c0.316,0.903,0.147,1.907-0.47,2.571C64.689,162.347,64.107,162.813,63.117,162.814z M53.973,144.841
						c-0.104,0-0.202,0.017-0.293,0.051c-0.532,0.199-0.909,1.01-1.009,2.17c-0.29,3.378,1.886,10.28,8.959,14.422
						c1.122,0.525,2.092,0.51,2.62-0.06c0.442-0.476,0.499-1.256,0.138-1.898l-0.242-0.432l0.443-0.225
						c0.095-0.048,9.658-4.983,15.256-15.433c1.289-2.405,1.284-4.99-0.012-6.586c-1.107-1.363-2.945-1.754-5.17-1.103l-0.015,0.005
						c-0.087,0.022-8.8,2.338-18.421,10.024l-0.326,0.261l-0.301-0.29C54.985,145.153,54.421,144.841,53.973,144.841z"/>
				</g>
				<path style="opacity:0.8;fill:#B2B2B2;" d="M74.528,135.292c0,0-3.022,0.788-7.49,3.008c0.087,0.293,0.163,0.595,0.219,0.912
					c0.932,5.286-3.417,10.599-8.315,11.999c-2.067,0.591-4.224,0.525-6.227-0.06c1.055,3.593,3.726,7.845,8.675,10.743
					c3.077,1.443,4.333-0.961,3.413-2.601c0,0,9.719-4.917,15.46-15.632C82.874,138.787,80.279,133.606,74.528,135.292z"/>
				<g>
					<g>
						<g>
							<path style="fill:#AF7558;" d="M55.321,149.46c0,0-12.533,7.972-17.64,21.008c0,0-2.687,0.205-5.787,3.313
								c-3.1,3.107-6.567,9.163-3.658,9.088c0,0-1.774,4.961,1.151,4.349c-0.3,3.469,3.47,2.499,4.894-1.836
								c-0.712,6.209,3.305,5.407,3.77,2.649c0.838-4.972,1.386-7.448,2.599-8.123c1.213-0.674,1.439,0.992,1.59,2.635
								c0.293,3.184,4.918,3.913,5.424,1.52c0.325-1.538-2.328-1.693-2.359-5.913c-0.021-2.862-1.848-3.954-1.848-3.954
								s5.927-9.242,17.347-15.089C60.805,159.106,61.165,152.923,55.321,149.46z"/>
							<path style="fill:#91543F;" d="M36.047,190.58c-0.089,0-0.177-0.007-0.266-0.019c-0.475-0.068-1.785-0.482-2.023-2.966
								c-1.055,1.619-2.446,2.382-3.48,2.163c-0.33-0.067-1.324-0.405-1.381-2.016c-0.606-0.008-0.974-0.265-1.188-0.511
								c-0.827-0.95-0.387-2.971-0.097-3.971c-0.488-0.155-0.712-0.496-0.81-0.725c-0.793-1.845,2.287-6.618,4.757-9.092
								c2.618-2.625,4.964-3.26,5.782-3.408c5.168-12.88,17.6-20.898,17.725-20.978c0.152-0.095,0.343-0.098,0.497-0.007
								c6.025,3.57,5.732,9.818,5.716,10.083c-0.009,0.168-0.108,0.318-0.258,0.395c-9.901,5.07-15.694,12.813-16.918,14.564
								c0.6,0.532,1.661,1.789,1.678,4.053c0.017,2.341,0.866,3.294,1.547,4.059c0.505,0.567,0.982,1.101,0.801,1.957
								c-0.247,1.167-1.323,1.862-2.726,1.786c-1.661-0.097-3.445-1.283-3.636-3.361c-0.054-0.588-0.198-2.151-0.566-2.346
								c-0.056-0.031-0.174,0-0.321,0.083c-1.076,0.598-1.634,3.472-2.36,7.786C38.281,189.53,37.203,190.58,36.047,190.58z
								 M34.281,184.906c0.033,0,0.068,0.004,0.102,0.011c0.237,0.052,0.398,0.275,0.37,0.518c-0.335,2.921,0.416,4.081,1.16,4.186
								c0.627,0.084,1.485-0.572,1.67-1.67c0.87-5.162,1.433-7.68,2.836-8.46c0.564-0.313,0.979-0.222,1.225-0.092
								c0.762,0.403,0.934,1.642,1.069,3.099c0.142,1.545,1.488,2.426,2.745,2.499c0.732,0.042,1.566-0.207,1.741-1.033
								c0.075-0.353-0.09-0.578-0.581-1.128c-0.704-0.79-1.768-1.985-1.788-4.683c-0.019-2.538-1.554-3.511-1.619-3.551
								c-0.108-0.067-0.187-0.175-0.216-0.3c-0.028-0.124-0.007-0.256,0.062-0.363c0.059-0.093,6.038-9.28,17.277-15.126
								c-0.006-1.174-0.335-5.867-5.003-8.791c-1.766,1.193-12.61,8.88-17.208,20.618c-0.067,0.17-0.225,0.287-0.406,0.301
								c-0.023,0.002-2.568,0.249-5.486,3.175c-2.67,2.675-5.054,6.886-4.556,8.045c0.031,0.073,0.126,0.269,0.549,0.232
								c0.177,0.023,0.305,0.07,0.397,0.197c0.092,0.126,0.115,0.29,0.062,0.438c-0.407,1.143-0.757,3.009-0.258,3.581
								c0.058,0.067,0.238,0.271,0.865,0.144c0.148-0.03,0.301,0.009,0.413,0.109c0.112,0.099,0.171,0.247,0.158,0.396
								c-0.037,0.428-0.052,1.436,0.608,1.571c0.826,0.167,2.512-1.009,3.362-3.596C33.896,185.034,34.08,184.906,34.281,184.906z
								 M37.681,170.467h0.009H37.681z"/>
						</g>
						<path style="opacity:0.8;fill:#B2B2B2;" d="M55.321,149.46c0,0-0.299,0.19-0.819,0.557c0.07,0.158,0.135,0.322,0.18,0.506
							c0.981,3.957,1.398,6.671-1.327,10.027c-2.67,3.289-6.592,5.493-9.105,8.847c-1.256,1.675-1.875,3.72-2.843,5.561
							c-0.969,1.845-2.389,3.398-3.302,5.27c-1.443,2.958-2.273,6.485-2.083,9.869c0.893,0.012,1.822-0.825,2.031-2.067
							c0.838-4.972,1.386-7.448,2.599-8.123c1.213-0.674,1.439,0.992,1.59,2.635c0.293,3.184,4.918,3.913,5.424,1.52
							c0.325-1.538-2.328-1.693-2.359-5.913c-0.021-2.862-1.848-3.954-1.848-3.954s5.927-9.242,17.347-15.09
							C60.805,159.106,61.165,152.923,55.321,149.46z"/>
						<path style="fill:#91543F;" d="M36.22,179.201c-0.577,1.438-0.999,2.931-1.271,4.424c-0.134,0.751-0.122,1.508-0.25,2.243
							c-0.112,0.743-0.183,1.476-0.328,2.281c-0.004,0.027-0.029,0.046-0.056,0.043c-0.016-0.002-0.03-0.014-0.038-0.027
							c-0.374-0.731-0.517-1.553-0.526-2.36c-0.006-0.812,0.237-1.593,0.458-2.353c0.453-1.523,1.098-2.967,1.927-4.296
							c0.014-0.022,0.043-0.029,0.066-0.015C36.221,179.153,36.228,179.18,36.22,179.201z"/>
						<path style="fill:#91543F;" d="M32.223,179.702c-0.651,1.59-1.288,3.187-1.778,4.803c-0.24,0.81-0.354,1.641-0.52,2.417
							c-0.12,0.784-0.256,1.538,0.247,2.258c0.017,0.021,0.014,0.053-0.007,0.07c-0.013,0.01-0.032,0.012-0.047,0.008
							c-0.443-0.15-0.796-0.577-0.954-1.038c-0.185-0.466-0.184-0.941-0.182-1.407c0.046-0.929,0.421-1.755,0.747-2.561
							c0.67-1.616,1.513-3.123,2.41-4.593c0.014-0.023,0.043-0.03,0.066-0.016C32.224,179.655,32.232,179.68,32.223,179.702z"/>
						<path style="fill:#91543F;" d="M30.83,178.438c-0.407,0.485-0.718,1.047-0.986,1.614c-0.279,0.563-0.502,1.15-0.688,1.745
							c-0.188,0.598-0.252,1.223-0.469,1.808c-0.212,0.589-0.418,1.183-0.768,1.782c-0.014,0.025-0.045,0.034-0.069,0.02
							c-0.012-0.007-0.021-0.02-0.025-0.032c-0.168-0.671-0.158-1.341-0.06-1.996c0.091-0.66,0.406-1.261,0.684-1.858
							c0.568-1.189,1.3-2.321,2.319-3.153c0.02-0.017,0.05-0.014,0.067,0.007c0.015,0.018,0.014,0.043,0,0.061L30.83,178.438z"/>
					</g>
					<path style="fill:#E88400;" d="M53.586,148.652c2.507,0.489,4.854,2.112,6.211,4.391c0.656,1.141,1.152,2.403,1.264,3.711
						c0.129,0.643,0.055,1.301,0.059,1.943c-0.066,0.642-0.181,1.277-0.312,1.897c-0.083-0.642-0.063-1.268-0.154-1.887
						c-0.115-0.615-0.139-1.234-0.324-1.822c-0.247-1.199-0.739-2.319-1.347-3.35c-0.604-1.041-1.406-1.964-2.321-2.776
						C55.74,149.957,54.718,149.236,53.586,148.652z"/>
				</g>
			</g>
			<g>
				<g>
					<path style="fill:#FFBB22;" d="M99.002,135.292c0,0,8.776,2.264,18.599,10.113c5.226-5.049,6.339,9.581-5.461,16.49
						c-3.077,1.443-4.333-0.961-3.413-2.601c0,0-9.719-4.917-15.46-15.632C90.657,138.787,93.251,133.606,99.002,135.292z"/>
					<path style="fill:#E88400;" d="M110.407,162.809c-0.991,0-1.567-0.464-1.822-0.738c-0.617-0.663-0.787-1.668-0.47-2.571
						c-1.905-1.072-10.182-6.125-15.266-15.615c-1.47-2.743-1.426-5.74,0.111-7.633c1.344-1.654,3.59-2.172,6.17-1.418
						c0.327,0.087,8.924,2.435,18.45,9.948c1.169-0.999,2.052-0.986,2.603-0.779c0.911,0.341,1.487,1.399,1.623,2.979
						c0.322,3.753-1.922,10.929-9.425,15.322C111.592,162.674,110.939,162.808,110.407,162.809z M96.886,135.439
						c-1.332,0-2.431,0.479-3.189,1.412c-1.296,1.596-1.301,4.18-0.012,6.585c5.599,10.45,15.161,15.385,15.257,15.433l0.442,0.225
						l-0.242,0.432c-0.361,0.642-0.303,1.422,0.138,1.898c0.531,0.569,1.498,0.584,2.659,0.04c7.034-4.121,9.21-11.022,8.92-14.4
						c-0.099-1.16-0.477-1.971-1.009-2.171c-0.485-0.185-1.163,0.123-1.919,0.854l-0.301,0.29l-0.327-0.261
						c-9.632-7.697-18.333-10.002-18.42-10.024l-0.015-0.005C98.165,135.541,97.5,135.439,96.886,135.439z"/>
				</g>
				<path style="opacity:0.8;fill:#B2B2B2;" d="M99.002,135.292c0,0,3.022,0.788,7.49,3.008c-0.087,0.293-0.163,0.595-0.219,0.912
					c-0.932,5.286,3.417,10.599,8.315,11.999c2.067,0.591,4.224,0.525,6.227-0.06c-1.055,3.593-3.726,7.845-8.675,10.743
					c-3.077,1.443-4.333-0.961-3.413-2.601c0,0-9.719-4.917-15.46-15.632C90.657,138.787,93.251,133.606,99.002,135.292z"/>
				<g>
					<g>
						<g>
							<path style="fill:#AF7558;" d="M118.209,149.46c0,0,12.533,7.972,17.64,21.008c0,0,2.687,0.205,5.786,3.313
								c3.1,3.107,6.567,9.163,3.658,9.088c0,0,1.774,4.961-1.152,4.349c0.3,3.469-3.47,2.499-4.894-1.836
								c0.712,6.209-3.305,5.407-3.77,2.649c-0.838-4.972-1.386-7.448-2.599-8.123c-1.213-0.674-1.439,0.992-1.59,2.635
								c-0.293,3.184-4.918,3.913-5.424,1.52c-0.325-1.538,2.328-1.693,2.359-5.913c0.021-2.862,1.848-3.954,1.848-3.954
								s-5.927-9.242-17.347-15.089C112.725,159.106,112.365,152.923,118.209,149.46z"/>
							<path style="fill:#91543F;" d="M137.484,190.58c-1.156,0-2.234-1.05-2.473-2.471c-0.726-4.315-1.284-7.188-2.361-7.788
								c-0.146-0.081-0.264-0.111-0.32-0.082c-0.367,0.194-0.512,1.758-0.567,2.346c-0.191,2.078-1.974,3.264-3.636,3.361
								c-1.412,0.072-2.478-0.619-2.726-1.786c-0.18-0.855,0.297-1.39,0.801-1.957c0.682-0.765,1.531-1.717,1.548-4.059
								c0.016-2.264,1.078-3.522,1.678-4.053c-1.225-1.751-7.017-9.493-16.919-14.564c-0.15-0.077-0.249-0.227-0.258-0.395
								c-0.016-0.264-0.308-6.513,5.717-10.083c0.156-0.091,0.347-0.087,0.497,0.007c0.125,0.08,12.557,8.098,17.725,20.978
								c0.817,0.148,3.164,0.782,5.783,3.408c2.469,2.475,5.549,7.247,4.755,9.093c-0.098,0.229-0.322,0.57-0.809,0.725
								c0.29,0.999,0.73,3.021-0.097,3.971c-0.214,0.246-0.583,0.503-1.189,0.511c-0.057,1.611-1.05,1.949-1.38,2.016
								c-1.048,0.219-2.426-0.546-3.48-2.163c-0.238,2.484-1.547,2.898-2.022,2.966C137.661,190.574,137.572,190.58,137.484,190.58z
								 M132.378,179.279c0.205,0,0.45,0.056,0.732,0.213c1.404,0.781,1.968,3.298,2.837,8.46c0.185,1.098,1.043,1.754,1.67,1.67
								c0.744-0.106,1.495-1.265,1.159-4.186c-0.028-0.242,0.133-0.466,0.37-0.518c0.243-0.052,0.478,0.084,0.553,0.315
								c0.849,2.583,2.512,3.768,3.362,3.596c0.66-0.134,0.646-1.143,0.609-1.571c-0.013-0.149,0.046-0.297,0.158-0.396
								c0.113-0.1,0.266-0.14,0.413-0.109c0.624,0.128,0.805-0.076,0.865-0.144c0.499-0.572,0.149-2.438-0.258-3.581
								c-0.053-0.148-0.03-0.312,0.062-0.438c0.092-0.126,0.233-0.211,0.397-0.197c0.425,0.033,0.518-0.16,0.549-0.232
								c0.498-1.159-1.886-5.37-4.555-8.045c-2.919-2.926-5.464-3.173-5.488-3.176c-0.18-0.015-0.339-0.132-0.405-0.3
								c-4.599-11.738-15.442-19.425-17.208-20.618c-4.668,2.924-4.998,7.617-5.004,8.791c11.241,5.846,17.219,15.033,17.278,15.126
								c0.07,0.108,0.092,0.239,0.062,0.365c-0.029,0.125-0.109,0.234-0.219,0.3c-0.062,0.038-1.598,1.011-1.616,3.549
								c-0.02,2.699-1.085,3.893-1.789,4.683c-0.491,0.551-0.655,0.775-0.581,1.128c0.175,0.827,1.01,1.075,1.74,1.033
								c1.257-0.073,2.603-0.955,2.745-2.499c0.135-1.458,0.309-2.697,1.07-3.099C132.009,179.334,132.174,179.279,132.378,179.279z
								"/>
						</g>
						<path style="opacity:0.8;fill:#B2B2B2;" d="M118.209,149.46c0,0,0.299,0.19,0.819,0.557c-0.07,0.158-0.135,0.322-0.18,0.506
							c-0.981,3.957-1.398,6.671,1.327,10.027c2.67,3.289,6.592,5.493,9.105,8.847c1.255,1.675,1.875,3.72,2.843,5.561
							c0.969,1.845,2.389,3.398,3.302,5.27c1.443,2.958,2.273,6.485,2.083,9.869c-0.893,0.012-1.822-0.825-2.031-2.067
							c-0.838-4.972-1.386-7.448-2.599-8.123c-1.213-0.674-1.439,0.992-1.59,2.635c-0.293,3.184-4.918,3.913-5.424,1.52
							c-0.325-1.538,2.328-1.693,2.359-5.913c0.021-2.862,1.848-3.954,1.848-3.954s-5.927-9.242-17.347-15.09
							C112.725,159.106,112.365,152.923,118.209,149.46z"/>
						<path style="fill:#91543F;" d="M137.394,179.156c0.829,1.329,1.474,2.773,1.927,4.296c0.222,0.76,0.464,1.541,0.458,2.353
							c-0.01,0.807-0.152,1.63-0.526,2.36c-0.012,0.024-0.042,0.034-0.067,0.022c-0.014-0.007-0.024-0.023-0.027-0.038
							c-0.145-0.805-0.216-1.538-0.328-2.281c-0.128-0.735-0.116-1.492-0.25-2.243c-0.273-1.493-0.694-2.987-1.271-4.424
							c-0.011-0.024,0-0.052,0.023-0.063C137.355,179.128,137.381,179.137,137.394,179.156z"/>
						<path style="fill:#91543F;" d="M141.391,179.659c0.897,1.47,1.74,2.977,2.41,4.593c0.326,0.807,0.701,1.633,0.747,2.561
							c0.001,0.465,0.002,0.94-0.183,1.407c-0.158,0.461-0.51,0.887-0.954,1.038c-0.026,0.009-0.054-0.005-0.063-0.031
							c-0.005-0.015,0-0.034,0.008-0.047c0.503-0.72,0.367-1.474,0.247-2.258c-0.166-0.776-0.279-1.607-0.52-2.417
							c-0.49-1.616-1.127-3.212-1.778-4.803c-0.01-0.024,0.001-0.052,0.026-0.062C141.354,179.63,141.379,179.639,141.391,179.659z"
							/>
						<path style="fill:#91543F;" d="M142.763,178.367c1.019,0.832,1.751,1.964,2.319,3.153c0.277,0.597,0.592,1.198,0.683,1.858
							c0.098,0.655,0.108,1.326-0.06,1.996c-0.007,0.027-0.035,0.044-0.062,0.037c-0.014-0.004-0.026-0.014-0.032-0.025
							c-0.35-0.598-0.555-1.192-0.768-1.782c-0.216-0.585-0.28-1.21-0.469-1.808c-0.186-0.595-0.409-1.183-0.688-1.745
							c-0.268-0.567-0.58-1.129-0.986-1.614l-0.003-0.004c-0.017-0.02-0.014-0.05,0.006-0.067
							C142.72,178.353,142.746,178.353,142.763,178.367z"/>
					</g>
					<path style="fill:#E88400;" d="M119.944,148.652c-1.132,0.585-2.153,1.306-3.078,2.107c-0.915,0.812-1.717,1.735-2.321,2.776
						c-0.607,1.032-1.1,2.151-1.347,3.35c-0.185,0.588-0.209,1.207-0.324,1.822c-0.091,0.619-0.07,1.246-0.154,1.887
						c-0.131-0.62-0.245-1.255-0.312-1.897c0.004-0.641-0.07-1.3,0.06-1.943c0.112-1.308,0.608-2.57,1.264-3.711
						C115.09,150.763,117.436,149.14,119.944,148.652z"/>
				</g>
			</g>
			<g>
				<g>
					<path style="fill:#FFBB22;" d="M73.261,139.616c-6.333-11.006,33.924-10.205,28.185,1.691
						c7.054,10.597,6.237,36.775,6.237,36.775s2.849,0.335,2.866,2.699c0.02,2.669-6.944,8.037-27.189,7.31
						c-20.245-0.727-33.002-7.333-24.946-10.377C58.415,177.714,60.214,150.92,73.261,139.616z"/>
					<path style="fill:#E88400;" d="M87.01,188.633c-1.165,0-2.386-0.022-3.667-0.068c-12.857-0.462-27.106-3.895-27.824-8.269
						c-0.135-0.825,0.191-1.985,2.444-2.916c0.117-1.399,0.701-7.495,2.522-14.595c1.888-7.362,5.528-17.324,12.178-23.277
						c-0.983-1.951-0.669-3.712,0.92-5.111c4.813-4.235,20.686-3.93,26.539,0.512c2.287,1.736,2.928,3.929,1.865,6.357
						c6.506,10.116,6.259,32.947,6.181,36.418c1.168,0.269,2.841,1.146,2.856,3.092c0.007,0.798-0.453,1.669-1.328,2.519
						C108.349,184.607,102.896,188.632,87.01,188.633z M85.665,132.346c-4.791,0-9.34,0.905-11.453,2.765
						c-1.338,1.177-1.514,2.574-0.539,4.268l0.195,0.34l-0.296,0.256c-12.745,11.043-14.666,37.505-14.683,37.771l-0.02,0.305
						l-0.286,0.107c-1.053,0.398-2.276,1.065-2.125,1.984c0.448,2.733,10.906,6.899,26.919,7.473
						c18.353,0.652,24.279-3.661,25.656-5c0.674-0.655,1.044-1.305,1.04-1.83c-0.014-1.912-2.348-2.22-2.447-2.232l-0.43-0.052
						l0.012-0.434c0.008-0.261,0.732-26.148-6.157-36.496l-0.15-0.225l0.118-0.245c1.012-2.097,0.518-3.925-1.469-5.434
						C96.661,133.475,91.013,132.346,85.665,132.346z"/>
				</g>
				<path style="fill:#FFDC8D;" d="M88.853,163.929c5.411-0.128,11.742-1.557,17.363-4.241c-0.601-4.722-1.567-9.566-3.121-13.49
					c-5.902,1.526-12.226,1.889-18.575,1.359c-3.894-0.325-10.031-0.82-15.192-2.582c-2.792,3.814-4.854,8.382-6.374,12.88
					C70.427,162.657,80.275,164.131,88.853,163.929z"/>
				<path style="fill:#FFDC8D;" d="M71.228,173.115c5.755,1.843,12.142,2.174,18.152,2.032c6.17-0.146,12.343-1.101,18.212-2.957
					c-0.047-2.072-0.148-4.587-0.355-7.312c-5.179,2.275-10.752,3.61-15.94,3.931c-12.607,0.78-18.996,0.074-29.491-5.998
					c-0.466,1.812-0.845,3.545-1.159,5.152C64.003,170.021,67.454,171.907,71.228,173.115z"/>
				<path style="opacity:0.8;fill:#B2B2B2;" d="M107.683,178.081c0,0,0.537-17.221-3.024-29.382
					c-0.347,5.573-1.908,10.984-4.99,16.014c-4.273,6.974-11.517,12.632-20.084,10c-11.665-3.583-15.67-14.526-13.886-24.888
					c-6.237,12.395-7.284,27.888-7.284,27.888c-8.056,3.044,4.701,9.65,24.946,10.377c20.245,0.727,27.208-4.641,27.189-7.31
					C110.531,178.415,107.683,178.081,107.683,178.081z"/>
			</g>
		</g>
		<g>
			<path style="opacity:0.8;fill:#B2B2B2;" d="M79.24,132.336c0,0-0.477,4.449-0.767,8.305c-0.289,3.856,3.912,6.237,8.56,6.237
				c4.648,0,8.578-2.952,8.578-6.237c0-3.285-0.007-8.305-0.007-8.305H79.24z"/>
			<g>
				<g>
					<path style="fill:#AF7558;" d="M79.888,131.847c0,0-0.439,4.097-0.706,7.649c-0.266,3.552,3.603,5.744,7.883,5.744
						s7.9-2.719,7.9-5.744c0-3.025-0.007-7.649-0.007-7.649H79.888z"/>
					<path style="fill:#91543F;" d="M87.065,145.715c-2.91,0-5.541-0.964-7.039-2.577c-0.965-1.04-1.42-2.311-1.318-3.677
						c0.264-3.52,0.703-7.623,0.708-7.665l0.045-0.424h15.971l0.001,0.474c0,0,0.007,4.625,0.007,7.65
						c0.001,1.604-0.924,3.204-2.537,4.389C91.296,145.066,89.223,145.715,87.065,145.715z M80.315,132.322
						c-0.119,1.138-0.447,4.367-0.66,7.21c-0.083,1.111,0.276,2.107,1.066,2.959c1.321,1.424,3.692,2.274,6.343,2.274
						c1.929,0,3.851-0.599,5.274-1.645c1.368-1.005,2.151-2.325,2.151-3.624c0-2.44-0.005-5.919-0.006-7.174H80.315z"/>
				</g>
				<path style="opacity:0.8;fill:#B2B2B2;" d="M94.36,141.617c0.387-0.666,0.605-1.384,0.605-2.121
					c0-3.025-0.007-7.649-0.007-7.649h-15.07c0,0-0.439,4.097-0.706,7.649c-0.045,0.597,0.036,1.152,0.207,1.668
					C83.909,138.317,90.492,138.335,94.36,141.617z"/>
			</g>
		</g>
		<g>
			<g>
				<g>
					<path style="fill:#6192AA;" d="M107.955,184.057c-5.697,3.31-13.835,4.419-24.594,4.033
						c-10.826-0.389-19.506-2.459-24.012-4.766c-1.66,9.585-3.96,34.349,10.167,58.832c0,0,6.593,1.541,9.297-3.044
						c0,0-5.134-18.587,4.447-39.814c0,0,7.445,27.862,19.662,41.5c0,0,6.488,1.915,9.068-2.556
						C104.205,206.368,111.989,200.895,107.955,184.057z"/>
					<path style="fill:#30697F;" d="M72.062,242.889c-1.456,0-2.544-0.245-2.655-0.27c-0.127-0.031-0.238-0.111-0.303-0.225
						c-14.21-24.626-11.883-49.569-10.223-59.15c0.025-0.149,0.121-0.277,0.255-0.344c0.135-0.068,0.294-0.066,0.429,0.002
						c3.919,2.007,12.231,4.298,23.812,4.714c11.257,0.41,18.982-0.856,24.339-3.969c0.129-0.075,0.287-0.083,0.426-0.026
						c0.137,0.059,0.239,0.18,0.275,0.327c1.708,7.13,1.32,12.217,0.872,18.109c-0.629,8.264-1.342,17.632,3.161,36.073
						c0.03,0.119,0.011,0.244-0.049,0.35c-2.735,4.74-9.333,2.857-9.614,2.775c-0.084-0.025-0.16-0.073-0.219-0.138
						C91.912,229.22,84.802,206.344,83.162,200.7c-8.676,20.317-3.942,38.105-3.892,38.286c0.033,0.124,0.016,0.257-0.049,0.367
						C77.486,242.295,74.329,242.889,72.062,242.889z M69.819,241.732c1.067,0.197,6.189,0.919,8.483-2.697
						c-0.516-2.095-4.485-19.975,4.524-39.933c0.084-0.183,0.268-0.297,0.472-0.277c0.2,0.016,0.368,0.157,0.42,0.351
						c0.073,0.277,7.518,27.765,19.462,41.201c0.876,0.222,6.073,1.359,8.3-2.212c-4.488-18.466-3.741-28.286-3.139-36.181
						c0.43-5.641,0.802-10.533-0.706-17.203c-5.489,2.978-13.243,4.182-24.292,3.784c-9.46-0.34-18.415-2.065-23.632-4.533
						C58.088,193.91,56.182,217.956,69.819,241.732z"/>
				</g>
				<path style="fill:#30697F;" d="M77.608,197.702c1.903,0.792,3.86,1.069,5.811,0.995c0.974-0.062,1.949-0.189,2.916-0.416
					c0.49-0.09,0.961-0.258,1.455-0.372c0.485-0.14,0.961-0.314,1.472-0.438c-0.412,0.31-0.843,0.601-1.291,0.868
					c-0.467,0.221-0.923,0.492-1.422,0.652c-0.977,0.389-2.029,0.572-3.085,0.655c-1.061,0.031-2.131-0.083-3.141-0.404
					C79.317,198.927,78.35,198.438,77.608,197.702z"/>
				<path style="fill:#30697F;" d="M58.111,197.494c-0.228,0-0.429-0.166-0.468-0.399c-0.042-0.258,0.133-0.502,0.392-0.545
					c0.311-0.052,7.625-1.362,8.489-10.621c0.025-0.261,0.239-0.446,0.518-0.429c0.261,0.024,0.453,0.256,0.428,0.518
					c-0.933,10.009-9.2,11.456-9.284,11.469C58.162,197.492,58.136,197.494,58.111,197.494z"/>
				<path style="fill:#30697F;" d="M109.021,199.659c-0.041,0-0.082-0.006-0.124-0.017c-9.548-2.586-10.53-12.166-10.539-12.262
					c-0.024-0.262,0.169-0.493,0.429-0.517c0.26-0.017,0.492,0.169,0.517,0.43c0.034,0.367,0.941,9.022,9.841,11.432
					c0.253,0.069,0.403,0.329,0.334,0.583C109.421,199.52,109.23,199.659,109.021,199.659z"/>
				<path style="opacity:0.3;fill:#B2B2B2;" d="M75.244,230.941c1.206,12.235-5.729,11.216-5.729,11.216s6.593,1.541,9.297-3.044
					c0,0-5.134-18.587,4.447-39.814c-2.906-0.244-4.511-0.97-4.511-0.97C75.004,206.229,74.039,218.706,75.244,230.941z"/>
				<path style="opacity:0.3;fill:#B2B2B2;" d="M107.955,184.057c-5.698,3.31-13.835,4.419-24.594,4.033
					c-10.826-0.389-19.506-2.459-24.012-4.766c-0.23,1.328-0.471,2.957-0.68,4.826c0.015-0.075,0.619-2.875,6.709-0.952
					c6.172,1.949,16.5,4.966,29.775,2.02c13.275-2.945,9.661,6.533,9.053,20.284c-0.608,13.751,11.033,29.352-1.284,31.296
					c0,0,6.488,1.915,9.068-2.556C104.205,206.368,111.989,200.895,107.955,184.057z"/>
			</g>
			<g>
				<g>
					<g>
						<path style="fill:#FFBB22;" d="M78.345,239.051c-1.289,5.861-5.615-1.072-9.339,1.491c-2.065,1.131-0.962,3.138-4.012,4.891
							l0.386,0.226c0,0,7.212-3.522,9.874,5.322c3.627-1.161,5.907-2.637,7.225-3.964C82.459,245.383,82.143,238.846,78.345,239.051
							z"/>
						<path style="fill:#D69400;" d="M75.255,251.455c-0.076,0-0.152-0.018-0.221-0.055c-0.113-0.059-0.198-0.161-0.234-0.283
							c-0.807-2.68-2.117-4.435-3.893-5.215c-2.562-1.125-5.293,0.17-5.32,0.182c-0.144,0.071-0.312,0.062-0.447-0.017l-0.386-0.225
							c-0.147-0.085-0.237-0.242-0.236-0.412c0.001-0.169,0.092-0.326,0.239-0.41c1.527-0.878,1.906-1.798,2.273-2.688
							c0.326-0.794,0.665-1.615,1.748-2.208c1.831-1.264,3.821-0.433,5.42,0.234c1.095,0.456,2.039,0.845,2.66,0.527
							c0.448-0.233,0.792-0.885,1.023-1.937c0.045-0.209,0.226-0.361,0.438-0.372c0.941-0.049,1.745,0.247,2.421,0.88
							c1.938,1.815,2.194,5.887,2.214,7.554c0.002,0.127-0.048,0.249-0.138,0.34c-1.132,1.141-3.338,2.776-7.416,4.082
							C75.352,251.448,75.304,251.455,75.255,251.455z M68.601,244.488c0.84,0,1.761,0.14,2.679,0.541
							c1.938,0.848,3.377,2.646,4.282,5.35c3.446-1.164,5.387-2.545,6.438-3.559c-0.054-2.448-0.581-5.426-1.908-6.669
							c-0.402-0.377-0.854-0.582-1.374-0.622c-0.304,1.14-0.771,1.861-1.421,2.2c-1.016,0.528-2.205,0.032-3.464-0.492
							c-1.53-0.638-3.112-1.298-4.557-0.303c-0.829,0.457-1.067,1.033-1.367,1.762c-0.251,0.61-0.543,1.316-1.209,2.021
							C67.24,244.588,67.891,244.488,68.601,244.488z"/>
					</g>
					<g>
						<path style="fill:#E5E5E5;" d="M65.38,245.658l-0.386-0.226c-0.483,0.277-1.061,0.549-1.782,0.809
							c-3.365,1.214-4.576,3.016-4.544,4.702c0,0,0.686,2.975,10.769,1.381c2.241-0.354,4.168-0.817,5.817-1.345
							C72.592,242.136,65.38,245.658,65.38,245.658z"/>
						<path style="fill:#C6C6C6;" d="M64.198,253.153c-5.198,0-5.815-1.863-5.876-2.129c-0.033-1.304,0.557-3.597,4.77-5.117
							c0.656-0.237,1.22-0.493,1.725-0.783c0.11-0.063,0.247-0.063,0.357,0.001l0.227,0.134c0.697-0.295,3.282-1.233,5.831-0.12
							c2.014,0.88,3.482,2.811,4.364,5.739c0.056,0.186-0.048,0.383-0.233,0.443c-1.764,0.563-3.738,1.02-5.87,1.356
							C67.341,253.017,65.602,253.153,64.198,253.153z M59.025,250.937c0.017,0,0.981,2.518,10.357,1.036
							c1.96-0.31,3.784-0.723,5.426-1.227c-0.825-2.527-2.121-4.192-3.856-4.953c-2.614-1.146-5.389,0.171-5.417,0.185
							c-0.107,0.053-0.233,0.046-0.336-0.012l-0.21-0.123c-0.493,0.269-1.037,0.51-1.656,0.734
							C60.521,247.591,58.991,249.14,59.025,250.937L59.025,250.937z"/>
					</g>
					<path style="fill:#7F7F7F;" d="M67.841,245.007c0.377,0.128,0.737,0.3,1.067,0.534c0.707,0.502,0.996,1.366,0.745,2.196
						c-0.515,1.706-2.522,2.468-4.106,2.756c-0.793,0.144-1.624,0.216-2.43,0.163c-0.776-0.051-1.652-0.214-2.293-0.688
						c-0.631-0.467-0.918-1.182-0.803-1.893c-0.963,0.908-1.371,1.906-1.352,2.869c0,0,0.686,2.975,10.769,1.381
						c2.241-0.354,4.168-0.817,5.817-1.345C73.6,245.482,70.187,244.764,67.841,245.007z"/>
				</g>
				<g>
					<path style="fill:#E5E5E5;" d="M82.479,247.016c-1.916,1.932-5.87,4.175-13.042,5.309c-10.083,1.594-10.769-1.381-10.769-1.381
						l0,0c0.019,0.956,0.434,1.876,1.093,2.629c0.865,0.988,6.461,1.626,14.783-0.587c8.322-2.213,7.934-5.603,7.934-5.603
						S82.482,247.249,82.479,247.016z"/>
					<path style="fill:#C6C6C6;" d="M64.405,254.843c-2.643,0-4.381-0.43-4.911-1.035c-0.742-0.848-1.162-1.862-1.181-2.856
						c-0.004-0.182,0.132-0.338,0.313-0.36c0.192-0.021,0.35,0.096,0.391,0.274c0.006,0.016,0.886,2.606,10.366,1.109
						c7.922-1.252,11.447-3.801,12.844-5.207c0.103-0.103,0.255-0.133,0.387-0.08c0.134,0.054,0.221,0.183,0.223,0.326
						c0.003,0.239,0,0.378,0,0.378c0.015,0.103,0.323,3.675-8.198,5.94C70.535,254.421,67.026,254.843,64.405,254.843z
						 M59.289,252.161c0.171,0.412,0.42,0.811,0.74,1.176c0.635,0.724,5.855,1.581,14.424-0.697
						c5.984-1.591,7.304-3.791,7.592-4.745c-1.8,1.508-5.487,3.664-12.552,4.781C63.284,253.658,60.519,252.939,59.289,252.161z"/>
				</g>
			</g>
			<g>
				<g>
					<g>
						<path style="fill:#FFBB22;" d="M112.137,238.658l0.855,2.271c0,0-2.34-2.371-5.591-1.771
							c-3.251,0.599-3.692,2.735-3.692,2.735l-0.56-0.964c0,0-1.396,0.054-1.694,2.412c-0.227,1.799-1.355,3.361-2.036,4.884
							l0.102,0.105c0,0,2.611-3.983,8.498-4.289c6.727-0.349,9.579,3.913,9.579,3.913
							C117.058,242.829,114.408,238.334,112.137,238.658z"/>
						<path style="fill:#D69400;" d="M99.521,248.805c-0.128,0-0.252-0.052-0.342-0.146l-0.1-0.105
							c-0.135-0.139-0.172-0.346-0.092-0.523c0.204-0.456,0.447-0.917,0.695-1.385c0.567-1.072,1.153-2.18,1.302-3.364
							c0.344-2.727,2.074-2.825,2.147-2.828c0.167-0.014,0.341,0.085,0.429,0.237l0.1,0.173c0.49-0.764,1.525-1.78,3.654-2.173
							c1.957-0.36,3.593,0.263,4.663,0.892l-0.285-0.758c-0.051-0.135-0.038-0.285,0.035-0.409c0.074-0.123,0.199-0.208,0.342-0.228
							c0.669-0.095,1.373,0.128,2.071,0.672c1.908,1.488,3.525,5.207,3.93,9.044c0.023,0.217-0.105,0.421-0.31,0.495
							c-0.201,0.074-0.433,0.001-0.557-0.18c-0.111-0.165-2.828-4.015-9.16-3.704c-5.559,0.288-8.101,4.038-8.126,4.076
							c-0.08,0.12-0.21,0.198-0.353,0.21C99.549,248.804,99.535,248.805,99.521,248.805z M108.805,243.546
							c4.15,0,6.753,1.701,8.09,2.925c-0.583-2.987-1.89-5.732-3.339-6.861c-0.243-0.189-0.48-0.325-0.706-0.405l0.586,1.559
							c0.079,0.209,0.001,0.445-0.187,0.566c-0.188,0.122-0.437,0.095-0.595-0.065c-0.022-0.022-2.218-2.183-5.168-1.637
							c-2.903,0.533-3.308,2.345-3.313,2.363c-0.039,0.193-0.194,0.341-0.389,0.373c-0.19,0.036-0.388-0.059-0.487-0.23
							l-0.377-0.648c-0.312,0.155-0.83,0.608-0.995,1.917c-0.122,0.969-0.478,1.852-0.893,2.696c1.437-1.133,3.717-2.362,6.96-2.53
							C108.271,243.552,108.542,243.546,108.805,243.546z"/>
					</g>
					<g>
						<path style="fill:#E5E5E5;" d="M108.019,244.041c-5.887,0.305-8.498,4.289-8.498,4.289s-1.302,5.796,8.832,4.626
							c8.786-1.015,9.271-4.177,9.245-5.001C117.598,247.954,114.746,243.693,108.019,244.041z"/>
						<path style="fill:#C6C6C6;" d="M105.834,253.469c-2.695,0-4.615-0.621-5.725-1.855c-1.338-1.487-0.953-3.286-0.936-3.362
							c0.009-0.042,0.027-0.082,0.05-0.117c0.11-0.169,2.779-4.139,8.777-4.449l0.019,0.355L108,243.686
							c6.84-0.377,9.774,3.889,9.894,4.07c0.037,0.056,0.058,0.12,0.06,0.187c0.032,0.996-0.566,4.327-9.561,5.366
							C107.475,253.416,106.621,253.469,105.834,253.469z M99.856,248.471c-0.05,0.304-0.189,1.593,0.79,2.676
							c1.255,1.387,3.91,1.889,7.665,1.456c8.189-0.946,8.897-3.746,8.93-4.533c-0.442-0.581-3.297-3.979-9.204-3.673l0,0
							C102.783,244.669,100.195,248.003,99.856,248.471z"/>
					</g>
					<path style="fill:#7F7F7F;" d="M108.019,244.041c-5.887,0.305-8.498,4.289-8.498,4.289s-1.302,5.796,8.832,4.626
						c8.785-1.015,9.271-4.177,9.245-5.001C117.598,247.954,114.746,243.693,108.019,244.041z M112.668,248.87
						c-0.203,0.529-0.48,1.024-0.933,1.38c-0.506,0.398-1.037,0.615-1.649,0.806c-0.948,0.296-1.997,0.363-2.983,0.352
						c-1.039-0.012-2-0.209-2.898-0.75c-0.917-0.552-1.607-1.585-1.581-2.628c-0.301-0.682-0.095-1.529,0.442-2.052
						c0.598-0.583,1.464-0.884,2.243-1.119c0.868-0.261,1.762-0.366,2.664-0.421c1.475-0.09,3.326,0.135,4.294,1.392
						C112.942,246.707,113.063,247.84,112.668,248.87z"/>
				</g>
				<g>
					<path style="fill:#E5E5E5;" d="M108.353,252.956c-10.134,1.17-8.832-4.626-8.832-4.626l-0.102-0.105
						c-0.716,1.603-0.938,3.163,0.919,4.91c3.622,3.408,17.427,1.624,17.366-3.53c-0.007-0.555-0.048-1.106-0.105-1.651
						C117.624,248.779,117.138,251.941,108.353,252.956z"/>
					<path style="fill:#C6C6C6;" d="M106.799,255.25c-2.764,0-5.337-0.569-6.705-1.855c-2.095-1.971-1.681-3.793-1-5.316
						c0.049-0.108,0.147-0.185,0.264-0.205c0.115-0.021,0.235,0.018,0.317,0.103l0.101,0.105c0.083,0.086,0.117,0.209,0.092,0.325
						c-0.014,0.062-0.317,1.53,0.778,2.74c1.255,1.387,3.91,1.889,7.665,1.456l0,0c8.607-0.994,8.95-4.037,8.93-4.637
						c-0.006-0.191,0.141-0.354,0.332-0.367c0.219-0.028,0.358,0.128,0.378,0.318c0.066,0.626,0.101,1.177,0.107,1.685
						c0.02,1.686-1.244,3.137-3.656,4.196C112.3,254.722,109.461,255.25,106.799,255.25z M99.262,250.075
						c-0.062,0.921,0.279,1.822,1.32,2.801c2.23,2.099,9.06,2.234,13.535,0.27c1.441-0.633,3.146-1.727,3.228-3.382
						c-0.939,1.319-3.271,2.889-8.951,3.545l-0.041-0.354l0.041,0.354c-4.062,0.47-6.849-0.101-8.285-1.695
						C99.656,251.11,99.401,250.571,99.262,250.075z"/>
				</g>
			</g>
		</g>
	</g>
	<g>
		<g>
			<g>
				<path style="fill:#60CCA8;" d="M149.47,75.492l-21.525,45.843c24.998,17.35,46.528,6.405,49.775-5.823
					C180.967,103.284,173.872,85.001,149.47,75.492z"/>
				<path style="fill:#44B28A;" d="M153.799,130.805c-8.42,0-17.508-3.101-26.124-9.081c-0.19-0.133-0.258-0.383-0.159-0.593
					l21.524-45.843c0.106-0.226,0.37-0.331,0.602-0.24c24.478,9.539,31.952,27.724,28.537,40.585
					c-1.506,5.671-6.747,10.777-13.678,13.324C161.132,130.196,157.531,130.805,153.799,130.805z M128.547,121.172
					c12.082,8.268,25.049,10.784,35.627,6.894c6.645-2.443,11.66-7.299,13.088-12.675c3.291-12.393-3.946-29.925-27.551-39.294
					L128.547,121.172z"/>
			</g>
			<g>
				<path style="fill:#AF7558;" d="M115.725,122.426c4.255-0.541,6.688-3.038,6.688-3.038c-7.985,0.676-10.351-8.175-5.756-5.882
					c4.319,2.154,10.608,2.136,12.595-0.441c0,0,4.032,3.932,9.278-2.692c6.032-7.617,5.065-22.433-2.968-22.641
					c-4.109-0.106-6.746,3.856-7.893,5.333c-1.147,1.477-1.014-1.58,0.376-3.853c1.39-2.273-3.017,1.445-4.307,3.505
					c-1.29,2.059-3.946-4.059,0.211-11.403c0,0-1.643,1.574-2.9,4.459c-1.257,2.885-5.47-4.869,1.308-15.296
					c1.822-2.804-2.312,3.122-8.581,0.959c-2.448-0.844,7.682-1.766,6.072-13.077c-2.556,3.56-3.625,2.392-3.893-4.49
					c-14.715-5.836-33.642-9.842-56.408-8.163c-29.143,2.149-42.192,18.38-42.213,18.405c-0.173,1.082-0.333,2.177-0.465,3.298
					c-7.413,33.305,15.234,70.749,62.079,71.971c23.557,0.614,38.929-14.081,38.929-14.081
					C113.023,127.896,110.819,123.05,115.725,122.426z"/>
				<path style="fill:#91543F;" d="M80.366,139.871c-0.473,0-0.949-0.007-1.429-0.019c-21.661-0.565-39.989-9.073-51.61-23.958
					c-10.749-13.768-14.73-31.48-10.921-48.591c0.111-0.965,0.264-2.05,0.459-3.27c0.013-0.08,0.046-0.155,0.096-0.218
					c0.129-0.164,13.225-16.425,42.551-18.587c20.125-1.484,39.167,1.276,56.62,8.196c0.174,0.069,0.292,0.236,0.3,0.423
					c0.2,5.156,0.858,5.904,1.132,5.986c0.088,0.029,0.594,0.065,1.9-1.755c0.114-0.157,0.313-0.228,0.499-0.184
					c0.188,0.046,0.329,0.202,0.357,0.394c1.163,8.167-3.653,11.175-5.71,12.46c-0.161,0.1-0.332,0.208-0.474,0.303
					c3.851,1.223,6.81-0.74,7.935-1.488c0.43-0.286,0.74-0.494,1.049-0.191c0.317,0.315,0.132,0.599-0.364,1.361
					c-4.389,6.753-4.118,12.553-2.917,14.623c0.244,0.421,0.461,0.519,0.533,0.547c0.034-0.002,0.139-0.083,0.244-0.323
					c1.28-2.938,2.936-4.545,3.007-4.613c0.17-0.162,0.434-0.174,0.62-0.032c0.187,0.145,0.238,0.404,0.123,0.609
					c-2.769,4.892-2.436,9.144-1.576,10.675c0.194,0.344,0.352,0.423,0.38,0.424c0,0,0.067-0.02,0.168-0.182
					c0.67-1.069,4.199-4.954,5.189-4.354c0.545,0.338,0.11,1.046-0.074,1.349c-0.737,1.205-1.049,2.528-1.083,3.217l0.22-0.289
					c1.286-1.699,3.964-5.216,7.987-5.13c2.596,0.068,4.729,1.609,6.007,4.342c2.544,5.438,1.342,13.992-2.678,19.07
					c-2.005,2.532-4.09,3.884-6.196,4.02c-1.631,0.102-2.819-0.555-3.397-0.968c-2.506,2.521-8.796,2.24-12.865,0.211
					c-0.692-0.345-1.261-0.427-1.481-0.211c-0.202,0.194-0.252,0.773,0.115,1.584c0.685,1.512,2.99,3.973,7.294,3.611
					c0.194-0.022,0.384,0.091,0.47,0.27c0.084,0.179,0.049,0.393-0.089,0.534c-0.104,0.107-2.599,2.623-6.968,3.179l0,0
					c-1.266,0.161-2.131,0.643-2.314,1.288c-0.1,0.354,0.035,0.713,0.372,0.984c0.633,0.507,1.963,0.697,3.81-0.291
					c0.209-0.113,0.469-0.053,0.61,0.139c0.139,0.193,0.115,0.458-0.057,0.622C118.055,125.785,103.052,139.87,80.366,139.871z
					 M17.782,64.313c-0.184,1.155-0.328,2.186-0.441,3.15c-3.755,16.881,0.161,34.304,10.736,47.848
					c11.442,14.656,29.513,23.035,50.884,23.592c18.489,0.473,32.021-8.668,36.752-12.4c-1.088,0.111-1.936-0.168-2.464-0.593
					c-0.629-0.506-0.894-1.265-0.692-1.982c0.139-0.493,0.721-1.669,3.108-1.973l0,0c2.474-0.314,4.319-1.328,5.378-2.069
					c-3.472-0.175-5.894-2.128-6.829-4.191c-0.509-1.122-0.474-2.116,0.091-2.661c0.385-0.372,1.144-0.664,2.565,0.046
					c4.292,2.141,10.238,1.988,12.008-0.306c0.083-0.107,0.207-0.174,0.342-0.184c0.135-0.01,0.269,0.039,0.365,0.134
					c0.011,0.011,1.211,1.148,3.08,1.014c1.82-0.124,3.669-1.356,5.495-3.661c3.755-4.742,4.928-13.02,2.561-18.077
					c-0.79-1.69-2.329-3.721-5.17-3.794c-0.051-0.002-0.102-0.002-0.152-0.002c-3.459,0-5.791,3.086-7.053,4.755l-0.302,0.396
					c-0.578,0.745-1.03,0.608-1.245,0.456c-0.748-0.517-0.278-2.611,0.47-4.162c-1.015,0.839-2.474,2.276-3.127,3.318
					c-0.461,0.736-1.101,0.716-1.508,0.472c-1.177-0.701-1.959-4.012-0.854-8.116c-0.099,0.204-0.198,0.417-0.294,0.637
					c-0.323,0.741-0.803,0.877-1.06,0.892c-0.484,0.018-1.01-0.333-1.409-1.02c-1.312-2.259-1.682-7.97,2.402-14.755
					c-1.641,0.903-4.44,1.963-7.797,0.804c-0.177-0.061-0.648-0.224-0.7-0.671c-0.057-0.494,0.384-0.768,1.184-1.268
					c1.953-1.22,5.906-3.689,5.398-10.376c-0.869,1.002-1.568,1.366-2.215,1.176c-1.097-0.329-1.605-2.174-1.795-6.549
					c-17.239-6.785-36.052-9.483-55.912-8.018C32.091,48.203,18.903,62.996,17.782,64.313z M115.725,122.426h0.009H115.725z"/>
			</g>
			<path style="opacity:0.8;fill:#B2B2B2;" d="M135.563,87.73c-4.109-0.106-6.746,3.856-7.894,5.333
				c-1.147,1.477-1.014-1.58,0.376-3.853c1.39-2.273-3.017,1.445-4.307,3.505c-1.29,2.059-3.946-4.059,0.211-11.403
				c0,0-1.643,1.574-2.9,4.459c-1.257,2.885-5.47-4.869,1.308-15.296c1.822-2.804-2.312,3.122-8.581,0.959
				c-2.448-0.844,7.682-1.766,6.072-13.077c-2.556,3.56-3.625,2.392-3.893-4.49c-14.715-5.836-33.642-9.842-56.408-8.163
				c-29.143,2.149-42.192,18.38-42.213,18.406c-0.173,1.082-0.334,2.177-0.465,3.298c-7.413,33.305,15.234,70.749,62.079,71.971
				c23.557,0.614,38.929-14.081,38.929-14.081c-4.855,2.599-7.059-2.247-2.153-2.871c4.255-0.541,6.688-3.038,6.688-3.038
				c-7.985,0.676-10.351-8.175-5.755-5.882c4.319,2.154,10.607,2.136,12.595-0.441c0,0,4.032,3.932,9.278-2.692
				C144.564,102.755,143.596,87.939,135.563,87.73z M128.991,107.244c0,0-3.458,7.661-9.047,3.818
				c-5.59-3.842-10.761-2.23-9.395,2.028c1.366,4.258,3.703,5.716,3.703,5.716c-5.857-0.502-3.703,4.735-3.703,4.735
				s-7.161,13.333-32.089,13.192c-50.376-0.285-61.181-44.116-57.831-70.781c0,0,22.667-31.135,91.074-12.085
				c0,0-0.995,9.224,3.109,8.727c0,0-0.819,6.729-6.219,9.204c-2.985,1.368,2.985,4.007,9.079,1.755c0,0-4.932,10.944,1.655,14.731
				c0,0-0.877,5.391,1.729,8.23c1.894,2.063,4.282-3.619,4.282-3.371c0,0.247,0.025,2.708,2.607,3.371
				c3.681-9.985,14.727-7.676,13.234,3.393C139.687,110.975,131.478,111.97,128.991,107.244z"/>
			<g>
				<path style="fill:#333333;" d="M11.702,72.625c-4.267,1.472-5.304-0.803-6.347,0.075c-1.043,0.879,0.488,7.488,7.884,6.746
					C4.95,83.662,6.815,91.506,7.93,93.923c1.115,2.418,0.658-3.299,6.957-5.397c0,0-0.776,5.956,3.75,10.335
					c-3.451-10.054-4.103-20.959-1.767-31.455C16.869,67.407,15.969,71.153,11.702,72.625z"/>
				<path style="fill:#161616;" d="M18.636,99.336c-0.12,0-0.239-0.045-0.33-0.133c-3.73-3.608-3.999-8.184-3.944-9.976
					c-3.055,1.249-4.227,3.425-4.876,4.63c-0.369,0.687-0.608,1.148-1.104,1.127c-0.493-0.016-0.747-0.566-0.883-0.862
					c-1.473-3.193-2.344-9.953,3.925-14.163c-4.336-0.285-5.96-3.265-6.385-4.271c-0.604-1.429-0.6-2.838,0.009-3.352
					c0.616-0.518,1.235-0.304,1.887-0.078c0.918,0.317,2.179,0.754,4.612-0.083c3.974-1.371,4.852-4.846,4.86-4.881
					c0.061-0.252,0.321-0.41,0.569-0.352c0.254,0.059,0.414,0.312,0.357,0.566c-2.305,10.354-1.699,21.141,1.752,31.197
					c0.071,0.208-0.009,0.437-0.194,0.555C18.812,99.312,18.724,99.336,18.636,99.336z M14.886,88.051
					c0.109,0,0.215,0.037,0.302,0.109c0.126,0.104,0.19,0.265,0.17,0.428c-0.007,0.049-0.509,4.301,2.094,8.132
					c-2.55-8.557-3.11-17.565-1.642-26.348c-0.833,1.013-2.088,2.061-3.952,2.703l0,0c-2.746,0.946-4.242,0.425-5.233,0.082
					c-0.618-0.214-0.78-0.248-0.963-0.092c-0.159,0.141-0.253,1.102,0.284,2.325c0.546,1.242,2.344,4.063,7.247,3.586
					c0.227-0.02,0.439,0.12,0.503,0.339c0.065,0.219-0.036,0.454-0.24,0.557C4.26,84.547,8.32,93.633,8.361,93.725
					c0.019,0.04,0.036,0.077,0.052,0.108c0.076-0.129,0.161-0.287,0.237-0.427c0.757-1.406,2.166-4.025,6.086-5.332
					C14.785,88.059,14.835,88.051,14.886,88.051z M11.702,72.625h0.009H11.702z"/>
			</g>
			<g>
				<path style="fill:#333333;" d="M162.624,87.749c-9.239-0.831-9.93-8.522-13.153-12.258
					c-5.143-5.702-16.518-14.885-33.514-21.625c0.268,6.882,1.337,8.051,3.893,4.49c1.609,11.312-8.52,12.233-6.072,13.077
					c6.269,2.163,10.403-3.763,8.581-0.959c-6.777,10.427-2.565,18.181-1.308,15.296c1.257-2.885,2.9-4.459,2.9-4.459
					c-4.157,7.344-1.502,13.462-0.211,11.403c1.29-2.059,5.697-5.777,4.307-3.505c-1.39,2.273-1.523,5.329-0.376,3.853
					c1.147-1.477,3.784-5.439,7.893-5.333c8.033,0.208,9.001,15.024,2.968,22.641c-5.246,6.624-9.278,2.692-9.278,2.692
					c-1.988,2.577-8.277,2.595-12.595,0.441c-4.596-2.293-2.229,6.558,5.756,5.882c0,0-2.433,2.497-6.688,3.038
					c-4.906,0.624-2.702,5.47,2.153,2.871c0,0-0.398,4.935,8.552-3.742c-0.985,7.972,6.141,3.944,7.599-2.386
					c1.831,6.732,9.598,4.144,7.278-2.27c3.157,5.386,6.523,1.992,3.6-4.082c6.734,3.246,14.713,0.239,11.647-1.553
					c-3.066-1.792-6.75-5.295-7.073-9.53c4.098,5.65,8.349-3.987,4.778-11.52C154.259,90.215,159.234,92.137,162.624,87.749z"/>
				<path style="fill:#161616;" d="M118.995,127.166c-0.264,0-0.499-0.049-0.707-0.147c-0.454-0.213-0.692-0.612-0.804-1.004
					c-1.953,0.848-3.448,0.529-4.235-0.105c-0.629-0.506-0.894-1.265-0.692-1.982c0.139-0.493,0.721-1.669,3.108-1.973
					c2.474-0.314,4.319-1.328,5.378-2.069c-3.472-0.175-5.894-2.128-6.829-4.191c-0.509-1.122-0.474-2.116,0.091-2.661
					c0.385-0.372,1.144-0.664,2.565,0.046c4.292,2.141,10.238,1.988,12.008-0.306c0.083-0.107,0.207-0.174,0.342-0.184
					c0.135-0.01,0.269,0.039,0.365,0.134c0.011,0.011,1.211,1.148,3.08,1.014c1.82-0.124,3.669-1.356,5.495-3.661
					c3.755-4.742,4.928-13.02,2.561-18.077c-0.79-1.69-2.329-3.721-5.17-3.794c-0.051-0.002-0.102-0.002-0.152-0.002
					c-3.459,0-5.791,3.086-7.053,4.755l-0.302,0.396c-0.578,0.745-1.03,0.608-1.245,0.456c-0.748-0.517-0.278-2.611,0.47-4.162
					c-1.015,0.839-2.474,2.276-3.127,3.318c-0.461,0.736-1.101,0.716-1.508,0.472c-1.177-0.701-1.959-4.012-0.854-8.116
					c-0.099,0.204-0.198,0.417-0.294,0.637c-0.323,0.741-0.803,0.877-1.06,0.892c-0.484,0.018-1.01-0.333-1.409-1.02
					c-1.312-2.259-1.682-7.97,2.402-14.755c-1.641,0.903-4.44,1.963-7.797,0.804c-0.177-0.061-0.648-0.224-0.7-0.671
					c-0.057-0.494,0.384-0.768,1.184-1.268c1.953-1.22,5.906-3.689,5.398-10.376c-0.869,1.002-1.568,1.366-2.215,1.176
					c-1.122-0.338-1.628-2.26-1.808-6.859c-0.006-0.161,0.07-0.314,0.2-0.406c0.131-0.094,0.301-0.113,0.45-0.054
					c16.156,6.407,27.996,15.436,33.691,21.748c0.93,1.077,1.636,2.425,2.383,3.852c1.884,3.596,4.02,7.672,10.46,8.251
					c0.173,0.016,0.323,0.124,0.392,0.283c0.07,0.159,0.047,0.343-0.059,0.481c-2.631,3.407-6.207,3.224-7.919,2.882
					c2.001,5.151,0.797,11.084-1.796,12.621c-0.511,0.303-1.684,0.752-3.059-0.322c0.921,3.307,3.867,6.053,6.568,7.632
					c1.239,0.725,0.895,1.607,0.761,1.86c-0.898,1.688-6.54,2.985-11.737,1.011c1.22,3.184,0.699,5.458-0.573,6.135
					c-0.745,0.399-1.849,0.269-3.04-0.953c0.058,1.316-0.316,2.491-1.104,3.376c-0.96,1.078-2.422,1.544-3.816,1.215
					c-1.365-0.321-2.49-1.328-3.21-2.834c-1.272,3.423-4.104,6.138-6.256,5.759c-0.797-0.14-2.013-0.821-1.955-3.674
					C122.693,125.71,120.429,127.166,118.995,127.166z M117.879,124.822c0.091,0,0.182,0.026,0.261,0.078
					c0.145,0.095,0.226,0.262,0.212,0.435c0,0.004-0.033,0.651,0.344,0.827c0.367,0.168,1.982,0.31,7.403-4.948
					c0.145-0.139,0.363-0.174,0.542-0.084c0.181,0.089,0.285,0.283,0.26,0.483c-0.283,2.291,0.112,3.704,1.083,3.875
					c1.56,0.267,4.677-2.494,5.582-6.425c0.049-0.213,0.236-0.364,0.454-0.368c0.238,0.025,0.411,0.14,0.468,0.351
					c0.521,1.915,1.62,3.201,3.014,3.529c1.053,0.245,2.161-0.106,2.889-0.923c0.962-1.082,1.134-2.754,0.47-4.59
					c-0.083-0.231,0.022-0.487,0.245-0.592c0.223-0.1,0.487-0.02,0.611,0.19c1.236,2.109,2.441,2.704,3.081,2.362
					c0.824-0.439,1.292-2.649-0.318-5.998c-0.088-0.182-0.051-0.399,0.092-0.542c0.142-0.142,0.359-0.179,0.542-0.092
					c5.113,2.463,10.92,1.16,11.602-0.123c0.04-0.074,0.146-0.274-0.401-0.594c-3.316-1.938-6.976-5.557-7.308-9.904
					c-0.016-0.212,0.111-0.409,0.311-0.482c0.197-0.074,0.423-0.005,0.547,0.167c0.697,0.961,1.77,1.959,2.933,1.271
					c2.117-1.254,3.421-7.267,1.031-12.308c-0.083-0.175-0.05-0.383,0.082-0.526c0.131-0.141,0.335-0.191,0.519-0.121
					c0.177,0.069,4.177,1.541,7.251-1.653c-6.257-0.904-8.408-5.01-10.316-8.652c-0.722-1.377-1.404-2.678-2.254-3.664
					c-5.535-6.136-16.992-14.892-32.646-21.219c0.232,4.494,0.84,5.174,1.099,5.252c0.088,0.029,0.594,0.065,1.9-1.755
					c0.114-0.157,0.313-0.228,0.499-0.184c0.188,0.046,0.329,0.202,0.357,0.394c1.163,8.167-3.653,11.175-5.71,12.46
					c-0.161,0.1-0.332,0.208-0.474,0.303c3.851,1.223,6.81-0.74,7.935-1.488c0.43-0.286,0.74-0.494,1.049-0.191
					c0.317,0.315,0.132,0.599-0.364,1.361c-4.389,6.753-4.118,12.553-2.917,14.623c0.244,0.421,0.461,0.519,0.533,0.547
					c0.034-0.002,0.139-0.083,0.244-0.323c1.28-2.938,2.936-4.545,3.007-4.613c0.17-0.162,0.434-0.174,0.62-0.032
					c0.187,0.145,0.238,0.404,0.123,0.609c-2.769,4.892-2.436,9.144-1.576,10.675c0.194,0.344,0.352,0.423,0.38,0.424
					c0,0,0.067-0.02,0.168-0.182c0.548-0.875,4.163-4.983,5.189-4.354c0.545,0.338,0.11,1.046-0.074,1.349
					c-0.737,1.205-1.049,2.528-1.083,3.217l0.22-0.289c1.286-1.699,3.964-5.216,7.987-5.13c2.595,0.068,4.729,1.609,6.007,4.342
					c2.544,5.438,1.342,13.992-2.678,19.07c-2.005,2.532-4.09,3.884-6.196,4.02c-1.631,0.102-2.819-0.555-3.397-0.968
					c-2.506,2.521-8.796,2.24-12.865,0.211c-0.692-0.345-1.261-0.427-1.481-0.211c-0.202,0.194-0.252,0.773,0.115,1.584
					c0.685,1.512,2.99,3.973,7.294,3.611c0.194-0.022,0.384,0.091,0.47,0.27c0.084,0.179,0.049,0.393-0.089,0.534
					c-0.104,0.107-2.599,2.623-6.968,3.179c-1.266,0.161-2.131,0.643-2.314,1.288c-0.1,0.354,0.035,0.713,0.372,0.984
					c0.633,0.507,1.963,0.697,3.81-0.291C117.725,124.84,117.802,124.822,117.879,124.822z M127.082,92.993L127.082,92.993
					L127.082,92.993z"/>
			</g>
			<g>
				<path style="fill:#60CCA8;" d="M59.548,45.703c49.061-3.617,80.326,19.149,89.922,29.789
					c4.614-44.168-32.491-67.387-66.166-68.437c-32.88-1.026-66.28,20.187-65.969,57.054C17.355,64.083,30.405,47.852,59.548,45.703
					z"/>
				<path style="fill:#44B28A;" d="M149.47,75.966c-0.132,0-0.261-0.056-0.353-0.157c-11.382-12.619-43.054-33.063-89.535-29.633
					c-28.631,2.111-41.748,18.068-41.877,18.229c-0.126,0.156-0.34,0.217-0.526,0.151c-0.19-0.066-0.318-0.243-0.32-0.444
					c-0.127-15.139,5.415-28.624,16.028-38.999C45.37,12.913,64.226,5.996,83.319,6.579c20.942,0.654,40.808,9.479,53.143,23.607
					c10.645,12.192,15.307,27.876,13.48,45.354c-0.019,0.187-0.147,0.344-0.325,0.403C149.569,75.959,149.519,75.966,149.47,75.966z
					 M69.858,44.845c40.313,0,68.096,17.738,79.241,29.545c1.506-16.786-3.1-31.836-13.354-43.579
					C123.581,16.878,103.972,8.175,83.289,7.529C64.445,6.944,45.853,13.77,33.552,25.792c-10.132,9.904-15.558,22.696-15.74,37.063
					c3.33-3.544,16.543-15.772,41.7-17.627l0.035,0.474l-0.035-0.474C63.044,44.969,66.498,44.845,69.858,44.845z"/>
			</g>
			<g>
				<path style="fill:#333333;" d="M37.909,44.379c0,0,15.834-6.312,38.032-4.786c0,0,2.248-21.875-17.375-17.897
					S37.909,44.379,37.909,44.379z"/>
				<path style="fill:#44B28A;" d="M37.909,44.855c-0.098,0-0.195-0.031-0.277-0.089c-0.132-0.095-0.206-0.251-0.197-0.412
					c0.01-0.191,1.283-19.119,21.037-23.123c5.63-1.142,10.052-0.297,13.147,2.51c5.814,5.273,4.839,15.47,4.794,15.901
					c-0.027,0.253-0.243,0.444-0.505,0.426c-21.831-1.505-37.667,4.691-37.824,4.754C38.028,44.843,37.968,44.855,37.909,44.855z
					 M63.022,21.69c-1.352,0-2.805,0.157-4.36,0.472c-16.825,3.409-19.743,18.045-20.2,21.509c3.346-1.182,17.873-5.805,37.04-4.583
					c0.116-2.028,0.267-10.304-4.524-14.646C68.956,22.609,66.29,21.69,63.022,21.69z"/>
			</g>
		</g>
		<g>
			<path style="fill:#3F1C08;" d="M45.406,92.015c-0.243,2.709-2.621,4.716-5.331,4.478c-2.702-0.229-4.71-2.609-4.47-5.32
				c0.228-2.713,2.612-4.714,5.324-4.482C43.632,86.923,45.641,89.312,45.406,92.015z"/>
			<path style="fill:#FFFFFF;" d="M40.947,89.065c-0.084,0.947-0.915,1.645-1.859,1.562c-0.942-0.077-1.641-0.918-1.563-1.86
				c0.084-0.943,0.918-1.637,1.855-1.555C40.328,87.291,41.023,88.114,40.947,89.065z"/>
		</g>
		<path style="fill:#3F1C08;" d="M37.506,79.109c-1.545,0.689-2.696,1.571-3.556,3.041c-0.372,0.636-1.219,2.211-0.448,2.733
			c0.095,0.076,0.324-0.108,0.342-0.205c0.208-0.83,0.677-1.47,1.215-2.125c1.484-1.828,2.807-2.56,5.095-1.844
			c2.018,0.628,3.406,2.214,4.504,3.929c0.116,0.19,0.687-0.188,0.62-0.384C44.145,80.698,41.687,77.267,37.506,79.109z"/>
		<g>
			<path style="fill:#3F1C08;" d="M101.982,88.075c-0.784,2.6-3.524,4.084-6.128,3.314c-2.6-0.781-4.084-3.526-3.31-6.126
				c0.781-2.611,3.52-4.079,6.124-3.311C101.27,82.731,102.752,85.468,101.982,88.075z"/>
			<path style="fill:#FFFFFF;" d="M98.204,84.28c-0.268,0.906-1.224,1.42-2.128,1.151c-0.915-0.269-1.426-1.226-1.16-2.134
				c0.28-0.903,1.232-1.418,2.134-1.153C97.959,82.413,98.482,83.374,98.204,84.28z"/>
		</g>
		<path style="fill:#3F1C08;" d="M95.009,74.146c-1.528,0.738-2.641,1.659-3.442,3.158c-0.353,0.651-1.154,2.246-0.371,2.746
			c0.104,0.072,0.331-0.123,0.344-0.219c0.18-0.839,0.632-1.482,1.142-2.16c1.421-1.888,2.722-2.663,5.032-2.022
			c2.034,0.563,3.479,2.091,4.633,3.78c0.119,0.181,0.679-0.216,0.609-0.406C101.694,75.499,99.118,72.16,95.009,74.146z"/>
		<path style="opacity:0.5;fill:#B2B2B2;" d="M58.567,21.697c-19.623,3.977-20.658,22.683-20.658,22.683s15.834-6.312,38.033-4.786
			C75.941,39.594,78.189,17.719,58.567,21.697z M40.953,39.671c6.254-18.457,28.885-23.335,30.292-4.221
			C71.245,35.449,55.688,33.456,40.953,39.671z"/>
		<path style="opacity:0.5;fill:#B2B2B2;" d="M162.623,87.749c-9.239-0.831-9.93-8.522-13.153-12.258
			c-5.143-5.703-16.518-14.885-33.514-21.625c0.268,6.882,1.337,8.051,3.893,4.49c1.609,11.312-8.52,12.233-6.072,13.077
			c6.269,2.163,10.403-3.763,8.581-0.959c-6.777,10.427-2.565,18.181-1.308,15.296c1.257-2.885,2.9-4.459,2.9-4.459
			c-4.157,7.344-1.502,13.463-0.211,11.403c1.29-2.059,5.697-5.777,4.307-3.505c-1.39,2.272-1.523,5.329-0.376,3.853
			c1.147-1.477,3.784-5.439,7.894-5.333c8.033,0.208,9.001,15.025,2.968,22.642c-5.246,6.624-9.278,2.692-9.278,2.692
			c-1.988,2.577-8.277,2.596-12.595,0.441c-4.596-2.292-2.229,6.558,5.755,5.882c0,0-2.433,2.497-6.688,3.038
			c-4.906,0.624-2.702,5.47,2.153,2.871c0,0-0.398,4.935,8.552-3.742c-0.985,7.971,6.141,3.944,7.599-2.386
			c1.831,6.732,9.598,4.144,7.278-2.27c3.157,5.386,6.523,1.992,3.6-4.082c6.734,3.245,14.713,0.239,11.647-1.553
			c-3.066-1.792-6.751-5.295-7.073-9.53c4.098,5.649,8.349-3.987,4.779-11.52C154.259,90.215,159.234,92.137,162.623,87.749z
			 M149.298,85.502c1.157,6.203-2.079,14.484-3.648,7.709c-1.57-6.775-9.585-10.576-9.585-10.576s2.479,3.47-0.496,2.868
			c-2.945-0.597-5.453-3.428-5.453-3.428s-3.305,6.179-4.462,2.827c-1.157-3.351,0-8.712,0-8.712s-2.975,5.453-3.223,1.653
			c-0.248-3.801,2.396-11.485,2.396-11.485c-2.892,3.718-9.089,4.296-6.941,2.809c2.148-1.487,5.206-6.032,4.545-9.254
			c10.738,1.759,24.483,12.966,27.43,19.5c2.947,6.534,5.622,8.428,5.622,8.428C150.772,87.675,149.298,85.502,149.298,85.502z"/>
		<path style="fill:#44B28A;" d="M33.188,53.039c-0.261,0-0.473-0.211-0.475-0.471c-0.131-17.885,7.965-28.807,14.779-34.821
			c7.38-6.513,14.908-8.831,14.983-8.853c0.254-0.076,0.516,0.067,0.592,0.317C63.142,9.462,63,9.726,62.749,9.802
			c-0.293,0.089-29.331,9.25-29.086,42.758c0.002,0.263-0.209,0.477-0.471,0.479C33.189,53.039,33.188,53.039,33.188,53.039z"/>
		<path style="fill:#44B28A;" d="M100.387,49.385c-0.022,0-0.046-0.002-0.068-0.005c-0.26-0.037-0.441-0.277-0.404-0.537
			c1.937-13.623-0.071-24.252-5.971-31.593C86.92,8.507,76.684,7.636,76.581,7.628c-0.262-0.02-0.458-0.249-0.438-0.509
			c0.02-0.262,0.25-0.469,0.508-0.439c0.107,0.008,10.733,0.9,18.023,9.961c6.078,7.555,8.159,18.434,6.181,32.335
			C100.823,49.214,100.619,49.385,100.387,49.385z"/>
		<path style="opacity:0.5;fill:#878787;" d="M83.304,7.054c-32.881-1.026-66.28,20.187-65.969,57.054
			c0.021-0.026,13.07-16.257,42.213-18.406c49.061-3.617,80.326,19.149,89.922,29.789C154.084,31.323,116.979,8.105,83.304,7.054z
			 M124.131,50.576c-33.103-13.178-67.617-10.511-84.895-5.258c-17.278,5.253-17.908,1.537-11.589-11.215
			c4.692-9.469,24.347-24.357,47.379-25.729C129.555,5.124,157.233,63.754,124.131,50.576z"/>
		<g>
			<path style="fill:#91543F;" d="M138.866,100.599c0.347-1.431-0.218-2.849-1.267-3.633c-1.026-0.801-2.461-1.068-3.608-0.565
				c-1.18,0.462-1.963,1.652-2.417,2.934c-0.442,1.304-0.658,2.725-0.775,4.168c-0.251-1.425-0.293-2.916,0.064-4.381
				c0.179-0.73,0.477-1.447,0.922-2.096c0.452-0.641,1.09-1.186,1.842-1.502c1.524-0.641,3.333-0.208,4.455,0.885
				c0.57,0.539,0.989,1.247,1.121,2.011C139.328,99.181,139.216,99.959,138.866,100.599z"/>
			<path style="fill:#91543F;" d="M134.939,101.253c-0.167-0.614-0.444-1.105-0.845-1.412c-0.396-0.303-0.871-0.451-1.314-0.397
				c-0.449,0.028-0.845,0.303-1.176,0.705c-0.331,0.415-0.533,0.961-0.796,1.544c-0.128-0.611-0.137-1.288,0.159-1.923
				c0.277-0.631,0.929-1.197,1.705-1.269c0.763-0.076,1.522,0.261,1.958,0.833C135.088,99.896,135.172,100.667,134.939,101.253z"/>
		</g>
		<path style="opacity:0.8;fill:#878787;" d="M134.688,105.332c-5.178,2.715-5.084-7.334-1.812-9.588
			C137.794,92.357,143.422,100.753,134.688,105.332z"/>
		<path style="opacity:0.8;fill:#878787;" d="M55.357,116.939c0,0,19.149,1.625,42.922-12.944c0,0-7.415,18.704-29.214,25.501
			C61.592,131.827,56.325,125.138,55.357,116.939z"/>
		<g>
			<path style="fill:#FFFFFF;" d="M96.912,105.167c0,0-16.046,9.834-26.223,11.545c-10.176,1.715-14.368,1.584-14.368,1.584
				s3.439,10.75,9.585,10.495C72.046,128.529,92.296,117.108,96.912,105.167z"/>
			<path style="fill:#F39D91;" d="M56.321,118.296c0,0,0.384,0.009,1.133-0.01c0.475,0.413,0.937,0.835,1.423,1.244
				c1.159,1.424,2.643,2.626,4.064,2.509c0.007-0.003,0.007-0.003,0.007-0.003c0.022,0.016,0.041,0.021,0.057,0.032
				c0.255,0.091,0.473,0.024,0.636-0.103c0.228-0.024,0.462-0.063,0.696-0.1c-0.646,1.994,0.93,4.588,2.499,6.812
				c-0.335,0.053-0.653,0.098-0.931,0.113C59.759,129.046,56.321,118.296,56.321,118.296z"/>
			<g>
				<path style="fill:#B7B6B6;" d="M86.762,114.877c0,0-23.094,8.841-24.883,7.766c-1.799-1.075-2.577-2.292-2.577-2.292
					s1.284,1.295,3.05,1.558C64.945,122.297,86.762,114.877,86.762,114.877z"/>
				<path style="fill:#B7B6B6;" d="M66.019,127.584c0,0-2.866-2.848-2.196-5.033l1.348-0.304
					C65.171,122.246,64.029,123.709,66.019,127.584z"/>
			</g>
		</g>
	</g>
</g>
</svg>
